<?xml version="1.0" encoding="utf-8"?>
<svg class="mx-auto mb-3" width="45px" height="45px" fill="none" xmlns="http://www.w3.org/2000/svg">
  <ellipse style="fill: rgb(119, 66, 255);" cx="22.5" cy="22.5" rx="22" ry="22"/>
  <path fill-rule="evenodd" clip-rule="evenodd" d="M 32.571 8.295 L 32.475 8.238 C 31.728 7.855 30.654 8.488 29.543 9.887 C 29.083 10.481 28.642 11.152 28.335 11.785 C 28.067 12.303 27.913 12.745 27.913 12.84 L 27.913 12.878 C 27.913 12.935 27.933 12.993 27.933 13.05 L 27.971 13.454 C 28.105 14.527 28.412 15.639 29.198 17.48 L 29.313 17.729 L 29.427 17.978 C 29.657 18.496 28.949 18.88 28.642 18.42 L 28.105 17.595 C 27.243 16.272 26.782 15.447 26.208 14.163 L 26.188 14.105 C 25.48 12.437 24.502 8.526 24.291 6.033 L 24.273 5.898 C 24.1 4.058 23.735 3.406 22.796 3.502 C 21.934 3.578 21.052 4.288 20.496 5.382 C 19.863 6.608 19.73 8.122 20.19 9.676 L 20.19 9.695 L 20.324 10.27 C 20.344 10.386 20.381 10.519 20.419 10.653 L 20.477 10.923 L 20.592 11.421 L 20.727 12.016 L 20.765 12.188 C 21.148 13.932 21.838 15.792 22.144 15.985 C 22.202 16.023 22.337 16.08 22.566 16.138 L 22.663 16.158 L 22.969 16.233 L 23.237 16.29 C 24.311 16.54 24.962 16.867 25.843 17.614 C 26.208 17.921 25.882 18.535 25.422 18.362 C 23.717 17.749 21.896 17.576 20.132 17.863 C 19.921 17.901 19.711 17.94 19.518 17.978 L 19.404 17.997 L 19.078 18.074 C 17.354 18.516 15.763 19.378 14.46 20.567 L 13.884 21.085 C 13.406 21.506 13.002 21.852 12.466 22.254 L 12.274 22.408 C 12.102 22.542 11.91 22.657 11.68 22.771 L 11.508 22.867 L 11.087 23.078 C 10.3 23.482 10.127 23.692 10.262 24.095 C 10.549 25.054 11.757 25.955 13.233 26.377 C 14.421 26.722 15.59 26.645 16.836 26.242 C 17.372 26.069 17.91 25.744 18.619 25.188 L 19.002 24.881 C 19.078 24.824 19.136 24.786 19.193 24.747 C 19.213 24.728 19.231 24.728 19.25 24.708 L 19.5 24.593 L 19.902 24.402 C 20.017 24.345 20.113 24.306 20.19 24.287 C 21.225 23.904 22.355 23.904 23.409 24.268 L 23.524 24.306 C 23.659 24.364 23.774 24.402 23.907 24.478 C 26.342 25.668 27.377 28.62 26.226 31.093 C 26.074 31.439 25.863 31.765 25.632 32.052 L 25.556 32.129 L 25.518 32.187 L 25.46 32.263 L 25.403 32.321 L 25.345 32.378 L 25.269 32.455 L 25.172 32.551 L 25.077 32.646 L 25 32.723 L 24.924 32.799 L 24.828 32.876 L 24.771 32.934 L 24.656 33.03 L 24.559 33.107 L 24.463 33.165 L 24.368 33.222 L 24.291 33.28 L 24.176 33.337 L 24.1 33.376 L 23.984 33.432 L 23.869 33.49 L 23.755 33.547 L 23.659 33.586 L 23.563 33.625 L 23.467 33.663 L 23.391 33.682 L 23.333 33.701 L 23.237 33.739 L 23.161 33.758 L 23.064 33.778 L 22.969 33.797 L 22.911 33.816 L 22.853 33.836 L 22.796 33.854 L 22.7 33.874 L 22.566 33.893 L 22.49 33.912 L 22.394 33.931 L 22.24 33.951 L 22.164 33.951 L 22.049 33.951 L 21.953 33.951 L 21.838 33.951 L 21.704 33.951 L 21.588 33.951 L 21.436 33.931 L 21.321 33.912 L 21.186 33.893 L 21.071 33.874 L 20.956 33.854 L 20.842 33.836 L 20.745 33.816 L 20.688 33.797 L 20.612 33.778 L 20.515 33.758 L 20.458 33.739 L 20.324 33.701 L 20.209 33.663 L 20.113 33.625 L 19.998 33.586 L 19.921 33.547 L 19.863 33.528 L 19.769 33.49 L 19.673 33.452 L 19.596 33.414 L 19.538 33.376 L 19.462 33.337 L 19.385 33.28 L 19.308 33.222 L 19.213 33.165 L 19.117 33.087 L 19.059 33.03 L 19.002 32.972 L 18.925 32.915 L 18.867 32.857 L 18.771 32.781 L 18.656 32.685 L 18.542 32.589 L 18.465 32.513 L 18.369 32.416 L 18.273 32.321 L 18.138 32.187 L 17.986 32.014 L 17.392 31.4 C 16.165 30.135 15.283 29.386 14.094 28.754 L 13.98 28.697 L 13.827 28.62 L 13.654 28.524 C 12.466 27.948 11.488 27.699 10.587 27.815 L 10.492 27.833 C 8.9 28.083 7.406 29.214 7.502 29.809 C 7.579 30.326 8.039 30.691 8.997 31.074 L 9.151 31.132 L 9.687 31.323 C 10.165 31.496 10.434 31.631 10.645 31.822 C 10.703 31.879 10.76 31.917 10.818 31.975 C 10.99 32.148 11.143 32.359 11.297 32.589 C 11.431 32.799 11.565 33.049 11.7 33.337 L 11.718 33.356 C 11.795 33.547 11.872 33.72 11.968 33.893 L 12.025 33.989 L 12.102 34.142 L 12.198 34.314 L 12.274 34.449 L 12.37 34.602 L 12.466 34.775 L 12.562 34.929 L 12.639 35.062 L 12.734 35.216 L 12.83 35.35 L 12.926 35.504 L 13.022 35.657 L 13.117 35.773 L 13.233 35.925 L 13.328 36.059 L 13.367 36.116 L 13.443 36.213 L 13.538 36.328 L 13.654 36.462 L 13.769 36.577 L 13.884 36.711 L 14.018 36.845 L 14.133 36.96 L 14.267 37.095 L 14.382 37.21 L 14.517 37.344 L 14.65 37.46 L 14.708 37.517 L 14.804 37.593 L 14.938 37.709 L 15.053 37.804 L 15.131 37.862 L 15.206 37.92 L 15.341 38.035 L 15.398 38.073 L 15.494 38.15 L 15.629 38.246 L 15.781 38.341 L 15.839 38.38 L 15.916 38.436 L 16.088 38.552 L 16.242 38.648 L 16.375 38.725 L 16.452 38.764 L 16.548 38.82 L 16.683 38.897 L 16.856 38.993 L 16.912 39.032 L 17.104 39.128 L 17.257 39.204 L 17.354 39.242 L 17.506 39.318 L 17.564 39.338 L 17.679 39.376 L 17.871 39.453 L 18.024 39.511 L 18.158 39.568 L 18.311 39.626 L 18.408 39.664 C 18.714 39.741 19.002 39.837 19.308 39.895 C 19.94 40.047 20.534 40.144 21.11 40.201 L 21.186 40.201 L 21.359 40.22 L 21.474 40.22 L 21.588 40.22 L 21.761 40.22 L 21.934 40.22 L 22.087 40.22 L 22.259 40.22 L 22.337 40.22 L 22.528 40.201 L 22.605 40.201 L 22.758 40.182 L 22.969 40.162 L 23.122 40.144 L 23.237 40.124 L 23.352 40.105 L 23.505 40.086 L 23.544 40.086 C 23.582 40.086 23.602 40.086 23.64 40.086 L 23.659 40.086 L 23.697 40.086 C 28.259 39.338 31.823 35.753 32.705 31.208 L 32.724 31.074 L 32.762 30.807 C 32.782 30.634 32.82 30.461 32.82 30.307 C 32.859 29.943 32.877 29.579 32.877 29.196 C 32.877 29.061 32.877 28.946 32.897 28.792 L 32.897 28.697 C 32.897 28.601 32.897 28.504 32.897 28.39 L 32.897 13.722 C 32.897 13.07 32.955 12.495 33.088 11.939 C 33.107 11.863 33.127 11.766 33.145 11.69 L 33.222 11.421 L 33.28 11.191 L 33.376 10.846 C 33.701 9.312 33.587 8.832 32.571 8.295 Z" fill="white" style=""/>
</svg>