<?xml version="1.0" encoding="utf-8"?>
<svg xmlns="http://www.w3.org/2000/svg" version="1.1" id="svg842" width="938.6px" height="938.6px" viewBox="0 0 938.6 938.6">
  <defs id="defs846">
    <clipPath clipPathUnits="userSpaceOnUse" id="clipPath860">
      <path d="M 0,1080 H 1080 V 0 H 0 Z" id="path858"/>
    </clipPath>
  </defs>
  <ellipse style="paint-order: fill; fill: rgb(255, 207, 16);" cx="468.491" cy="470.316" rx="466.98" ry="466.98"/>
  <g id="g850" transform="matrix(0.931197, 0, 0, -0.931197, -20.640795, 952.549459)" style="">
    <g id="g854">
      <g id="g856" clip-path="url(#clipPath860)">
        <g id="g862" transform="translate(485.812,872.5522)">
          <path d="m 0,0 v 0 c 21.903,22.146 57.611,22.343 79.757,0.44 l 372.734,-368.639 c 22.145,-21.902 22.342,-57.611 0.44,-79.757 -21.902,-22.145 -57.611,-22.342 -79.757,-0.44 L 0.441,-79.757 C -21.705,-57.854 -21.902,-22.146 0,0" style="fill:#3a3a3a;fill-opacity:1;fill-rule:nonzero;stroke:none" id="path864"/>
        </g>
        <g id="g866" transform="translate(729.0557,824.1167)">
          <path d="m 0,0 c -46.279,0.579 -90.782,-17.796 -123.172,-50.857 -33.905,-34.442 -39.492,-46.18 -75.115,-123.179 -35.623,-76.999 -15.426,-120.225 18.478,-154.131 34.436,-34.435 132.136,-19.905 179.809,-19.905 46.259,-0.828 90.714,17.937 122.389,51.66 33.548,31.797 52.279,76.171 51.66,122.39 0.524,46.431 -18.173,91.011 -51.66,123.179 C 90.48,-17.552 46.105,0.882 0,0" style="fill:#3a3a3a;fill-opacity:1;fill-rule:nonzero;stroke:none" id="path868"/>
        </g>
        <g id="g870" transform="translate(280.1177,813.0679)">
          <path d="m 0,0 v 0 l -8,-0.25 -8.25,-0.5 -7.75,-1 -7.75,-1.25 -7.75,-1.75 -7.5,-2 -7.25,-2.25 -7.25,-2.75 -7,-3.25 -7,-3.5 -6.75,-3.75 -6.5,-4.25 -6.5,-4.5 -6.25,-5 -6.25,-5.5 -6,-5.5 -5.75,-6.25 -5.5,-6 -4.75,-6.5 -4.75,-6.5 -4.25,-6.5 -3.75,-6.75 -3.5,-7 -3.25,-7 -2.75,-7.25 -2.25,-7.25 -2,-7.5 -1.75,-7.75 -1.25,-7.75 -1,-7.75 -0.5,-8.25 -0.25,-8 0.25,-8.25 0.5,-8 1,-8 1.25,-7.75 1.75,-7.5 2,-7.5 2.25,-7.25 2.75,-7.25 3.25,-7 3.5,-6.75 3.75,-6.75 4.25,-6.5 4.75,-6.5 4.75,-6.25 5.5,-6 5.75,-6 6,-5.75 6.25,-5.5 6.25,-5 6.5,-4.75 6.5,-4.25 6.75,-4 7,-3.5 7,-3.25 7.25,-2.75 7.25,-2.5 7.5,-2 7.75,-1.75 7.75,-1.25 7.75,-1 8.25,-0.5 8,-0.25 8.5,0.25 8,0.5 8,1 7.75,1.25 7.75,1.75 7.5,2 7.25,2.5 7.25,2.75 7,3.25 6.75,3.5 6.75,4 6.5,4.25 6.25,4.75 6.25,5 6,5.5 5.75,5.75 6,6 5.25,6 5,6.25 4.75,6.5 4.25,6.5 4,6.75 3.5,6.75 3.25,7 2.75,7.25 2.5,7.25 2,7.5 1.75,7.5 1.25,7.75 1,8 0.5,8 0.25,8.25 -0.25,8 -0.5,8.25 -1,7.75 -1.25,7.75 -1.75,7.75 -2,7.5 -2.5,7.25 -2.75,7.25 -3.25,7 -3.5,7 -4,6.75 -4.25,6.5 -4.75,6.5 -5,6.5 -5.25,6 -6,6.25 -5.75,5.5 -6,5.5 -6.25,5 -6.25,4.5 -6.5,4.25 -6.75,3.75 -6.75,3.5 -7,3.25 -7.25,2.75 -7.25,2.25 -7.5,2 -7.75,1.75 -7.75,1.25 -8,1 -8,0.5 z" style="fill:#3a3a3a;fill-opacity:1;fill-rule:nonzero;stroke:none" id="path872"/>
        </g>
        <g id="g874" transform="translate(803.6143,705.1929)">
          <path d="m 0,0 v 0 l -0.138,2.608 -0.412,2.608 -0.549,2.609 -0.961,2.471 -1.098,2.333 -1.372,2.197 -1.648,2.059 -1.785,1.922 -2.058,1.922 -2.06,1.51 -2.196,1.51 -2.471,1.098 -2.472,0.961 -2.608,0.687 -2.608,0.412 -2.746,0.137 -2.608,-0.137 -2.608,-0.412 -2.609,-0.687 -2.471,-0.961 -2.47,-1.098 -2.198,-1.51 -2.196,-1.51 -1.922,-1.922 -117.098,-117.099 -1.785,-1.922 -1.648,-2.059 -1.372,-2.197 -1.099,-2.334 -0.823,-2.47 -0.686,-2.609 -0.412,-2.608 -0.138,-2.609 0.138,-2.745 0.274,-2.608 0.686,-2.609 0.961,-2.608 1.099,-2.334 1.372,-2.333 1.648,-2.197 1.785,-1.922 2.058,-1.922 2.06,-1.51 2.334,-1.373 2.333,-1.098 2.472,-0.961 2.608,-0.549 2.608,-0.275 h 2.745 2.609 l 2.608,0.275 2.609,0.549 2.47,0.961 2.471,1.098 2.197,1.373 2.197,1.51 1.921,1.922 117.099,116.962 1.785,2.059 1.648,2.197 1.372,2.196 1.236,2.471 0.823,2.609 0.687,2.608 0.274,2.608 z" style="fill:#ffffff;fill-opacity:1;fill-rule:nonzero;stroke:none" id="path876"/>
        </g>
        <g id="g878" transform="translate(776.5703,560.9121)">
          <path d="m 0,0 v 0 l 2.608,0.137 2.608,0.275 2.471,0.686 2.471,0.961 2.334,1.098 2.334,1.373 2.059,1.648 1.922,1.784 1.785,1.922 1.647,2.197 1.372,2.196 1.237,2.471 0.961,2.471 0.685,2.471 0.412,2.746 0.138,2.608 -0.138,2.746 -0.412,2.608 -0.685,2.608 -0.961,2.471 -1.237,2.334 -1.372,2.334 -1.647,2.059 -1.785,2.059 -117.099,116.962 -1.922,1.922 -2.059,1.51 -2.197,1.373 -2.471,1.235 -2.333,0.824 -2.609,0.686 -2.608,0.412 -2.609,0.138 -2.745,-0.138 -2.746,-0.412 -2.608,-0.548 -2.471,-0.962 -2.472,-1.098 -2.196,-1.373 -2.196,-1.647 -2.06,-1.922 -1.784,-1.922 -1.647,-2.059 -1.373,-2.334 -1.098,-2.333 -0.824,-2.472 -0.549,-2.608 -0.412,-2.608 v -2.746 -2.746 l 0.412,-2.607 0.549,-2.609 0.824,-2.471 1.098,-2.334 1.373,-2.334 1.647,-2.059 1.784,-1.921 117.1,-117.1 2.059,-1.921 2.059,-1.511 2.334,-1.51 2.471,-1.098 L -8.1,1.098 -5.491,0.412 -2.746,0 Z" style="fill:#ffffff;fill-opacity:1;fill-rule:nonzero;stroke:none" id="path880"/>
        </g>
        <g id="g882" transform="translate(708.8672,209.5674)">
          <path d="m 0,0 v 0 h -3.25 l -3,0.25 -3.25,0.5 -3,0.5 -3,0.75 -2.75,0.75 -5.75,2 -5.5,2.75 -5,3 -4.75,3.5 -4.5,4 -3.75,4.5 -3.75,4.75 -3,5 -2.5,5.25 -2.25,5.75 -0.75,3 -0.75,3 -0.5,3 -0.25,3 -0.25,3.25 -0.25,3 v 93.75 l 0.25,3.25 0.25,3 0.25,3.25 0.5,3 0.75,3 0.75,2.75 2.25,5.75 2.5,5.5 3,5 3.75,4.75 3.75,4.25 4.5,4 4.75,3.5 5,3.25 5.5,2.5 5.75,2.25 2.75,0.75 3,0.75 3,0.5 3.25,0.25 3,0.25 3.25,0.25 3.25,-0.25 3,-0.25 3,-0.25 3.25,-0.5 3,-0.75 2.75,-0.75 5.75,-2.25 5.25,-2.5 5.25,-3.25 4.75,-3.5 4.25,-4 4,-4.25 3.5,-4.75 3.25,-5 2.5,-5.5 2,-5.75 1,-2.75 0.75,-3 0.5,-3 0.25,-3.25 0.25,-3 0.25,-3.25 V 61.5 l -0.25,-3 -0.25,-3.25 -0.25,-3 -0.5,-3 -0.75,-3 -1,-3 -2,-5.75 -2.5,-5.25 L 51,27.25 47.5,22.5 43.5,18 39.25,14 34.5,10.5 29.25,7.5 24,4.75 18.25,2.75 15.5,2 12.5,1.25 9.25,0.75 6.25,0.25 3.25,0 Z" style="fill:#ffffff;fill-opacity:1;fill-rule:nonzero;stroke:none" id="path884"/>
        </g>
        <g id="g886" transform="translate(706.8672,185.3174)">
          <path d="M 0,0 V 0 L -15.25,0.25 -31,0.5 -47.5,1 l -17,0.75 -17.75,1 L -101,4 l -19,1.5 -20,2 -17,1.75 -16.75,2 -16.75,2 -16.5,2.25 -32.25,4.75 -31.25,5 -29.75,5.5 -28.5,5.25 -26.75,5.5 -25,5.5 -23,5.25 -20.5,4.75 -18.25,4.5 -15.5,4 -22.5,6 -9.5,2.75 -4.75,1.75 -4.75,2 -4.25,2.75 -4,2.75 -3.5,3.25 -3.25,3.75 -3,3.75 -2.5,4.25 -2.25,4.25 -1.5,4.5 -1.5,4.75 -0.75,4.75 -0.25,5 0.25,5 0.5,5 1.25,5 1.75,4.75 2,4.75 2.5,4.25 3,4 3.25,3.5 3.75,3.25 3.75,3 4,2.5 4.5,2.25 4.5,1.5 4.75,1.25 4.75,1 5,0.25 5,-0.25 5,-0.5 5,-1.25 7.5,-2.25 20.75,-5.5 14.5,-3.75 17.5,-4.25 19.5,-4.5 22,-5 24,-5.25 25.5,-5.25 27.5,-5.25 28.5,-5.25 30,-4.75 30.75,-4.75 31.5,-4 16,-2 16.25,-1.5 15.25,-1.5 15,-1.25 14.5,-1.25 14,-0.75 26.75,-1.25 24.75,-0.75 23,-0.25 21,0.25 19.25,0.75 17.25,1 15.25,1 13.25,1.25 11.25,1.25 9.5,1.25 12.5,2 4.5,1 5,1 5,0.25 h 5 l 5,-0.75 4.75,-1 4.5,-1.5 4.5,-2 4.25,-2.25 4,-2.75 3.5,-3.25 3.5,-3.5 3,-3.75 2.75,-4 2.25,-4.5 2,-4.75 1.25,-5 1,-5 0.5,-5 -0.25,-5 -0.5,-5 L 187,48 l -1.5,-4.5 -1.75,-4.5 -2.5,-4.25 -2.75,-4 -3,-3.75 -3.5,-3.25 -4,-3 -4,-2.75 -4.5,-2.25 -4.75,-2 L 150,12.25 146.5,11.5 138.75,10 126.5,8.25 109.75,6 l -10,-1.25 -11,-1 -12.25,-1 -13.25,-1 L 49,1.25 33.75,0.5 17.25,0.25 Z" style="fill:#3a3a3a;fill-opacity:1;fill-rule:nonzero;stroke:none" id="path888"/>
        </g>
      </g>
    </g>
  </g>
</svg>